<?xml version="1.0" encoding="UTF-8"?>
<!DOCTYPE svg PUBLIC "-//W3C//DTD SVG 1.1//EN" "http://www.w3.org/Graphics/SVG/1.1/DTD/svg11.dtd">
<!-- Creator: CorelDRAW 2019 (64-Bit Evaluation Version) -->
<svg xmlns="http://www.w3.org/2000/svg" xml:space="preserve" width="1.63362in" height="0.759732in" version="1.1" style="shape-rendering:geometricPrecision; text-rendering:geometricPrecision; image-rendering:optimizeQuality; fill-rule:evenodd; clip-rule:evenodd"
viewBox="0 0 1642.82 764.01"
 xmlns:xlink="http://www.w3.org/1999/xlink">
 <defs>
  <style type="text/css">
   <![CDATA[
    .fil0 {fill:#044070}
    .fil2 {fill:white;fill-rule:nonzero}
    .fil1 {fill:white;fill-rule:nonzero}
   ]]>
  </style>
 </defs>
 <g id="Layer_x0020_1">
  <metadata id="CorelCorpID_0Corel-Layer"/>
  <polygon class="fil0" points="-0,0 764.01,0 764.01,764.01 -0,764.01 "/>
  <path class="fil1" d="M55.69 262.67l76.93 0c19.61,0 34.58,1.67 44.81,4.92 13.58,4.36 24.53,12.07 33.02,23.02 8.44,10.95 12.68,24.86 12.68,41.62 0,15.2 -3.8,28.44 -11.4,39.73 -7.6,11.28 -17.93,19.33 -31,24.14 -10.06,3.69 -26.09,5.59 -48.1,5.59l-34.25 0 0 99.17 -42.68 0 0 -238.17zm42.68 102.3l29.67 0c7.6,0 12.85,-0.17 15.7,-0.45 5.98,-0.56 11.12,-1.56 15.37,-3.07 4.24,-1.45 7.93,-3.63 11.06,-6.43 3.13,-2.85 5.47,-6.26 7.09,-10.17 1.67,-3.91 2.46,-8.16 2.46,-12.63 0,-7.48 -2.01,-13.96 -6.15,-19.38 -4.08,-5.36 -10.22,-9.22 -18.38,-11.51 -5.7,-1.67 -15.25,-2.46 -28.66,-2.46l-28.16 0 0 66.09zm216.63 35.36l0 100.51 -42.74 0 0 -238.17 77.27 0c16.59,0 29.72,0.95 39.45,2.8 9.83,1.84 18.94,5.64 27.32,11.28 8.44,5.7 14.92,13.18 19.5,22.46 4.58,9.27 6.87,19.89 6.87,31.9 0,12.24 -2.34,23.07 -7.09,32.63 -4.75,9.55 -11.73,17.21 -20.89,23.02 -6.65,4.24 -15.37,7.38 -26.2,9.33l63.35 104.75 -51.07 0 -54.81 -100.51 -30.95 0zm0 -36.65l27.15 0c16.59,0 27.43,-0.67 32.41,-1.96 7.76,-2.18 13.74,-5.92 17.94,-11.23 4.19,-5.31 6.31,-11.73 6.31,-19.39 0,-7.32 -2.01,-13.58 -6.03,-18.83 -4.08,-5.25 -9.66,-8.88 -16.87,-10.95 -5.25,-1.56 -13.97,-2.29 -26.21,-2.29l-34.69 0 0 64.64zm411.73 20.28c0,19 -4.13,36.99 -12.29,54.03 -10.39,21.96 -25.03,38.88 -44.02,50.9 -19,12.01 -41.9,17.99 -68.77,17.99 -43.97,0 -77.43,-14.69 -100.51,-44.19 -17.99,-23.02 -26.99,-49.78 -26.99,-80.34 0,-21.95 4.75,-42.18 14.25,-60.73 7.43,-14.41 16.98,-26.53 28.72,-36.31 11.73,-9.83 24.36,-16.98 37.88,-21.45 13.58,-4.47 28.83,-6.7 45.87,-6.7 20.62,0 38.38,3.18 53.24,9.66 14.92,6.43 27.65,15.2 38.21,26.32 10.62,11.12 19,24.19 25.14,39.1 6.15,14.97 9.28,32.24 9.28,51.73zm-44.19 -0.67c0,-16.65 -3.58,-31.73 -10.67,-45.25 -7.09,-13.47 -17.21,-23.74 -30.45,-30.89 -13.18,-7.15 -27.1,-10.73 -41.73,-10.73 -14.42,0 -28.05,3.58 -40.89,10.78 -12.91,7.21 -22.85,17.26 -29.89,30.11 -7.04,12.9 -10.56,27.48 -10.56,43.86 0,16.81 3.46,31.73 10.34,44.81 6.87,13.02 16.48,23.24 28.77,30.56 12.35,7.38 26.43,11.06 42.24,11.06 23.8,0 43.52,-7.93 59.28,-23.86 15.7,-15.98 23.58,-36.09 23.58,-60.45z"/>
  <path class="fil2" d="M1000.87 292.95l-34.42 28.33c-5.98,-7.32 -13.29,-12.91 -22.01,-16.76 -8.66,-3.91 -18.04,-5.81 -28.21,-5.81 -13.74,0 -26.82,3.52 -39.1,10.61 -12.35,7.09 -21.96,17.26 -28.83,30.45 -6.87,13.18 -10.33,27.88 -10.33,44.02 0,15.81 3.35,29.95 10,42.4 6.65,12.46 16.26,22.13 28.72,29 12.51,6.87 25.7,10.28 39.55,10.28 22.91,0 40.79,-9.22 53.69,-27.65l36.99 26.7c-9.05,12.51 -21.06,22.57 -35.93,30.17 -14.91,7.6 -32.35,11.39 -52.29,11.39 -27.82,0 -51.23,-6.37 -70.22,-19.11 -19,-12.68 -33.3,-29.33 -42.91,-50 -8.16,-17.32 -12.23,-35.87 -12.23,-55.65 0,-23.35 5.48,-44.58 16.42,-63.63 10.95,-19.11 25.64,-33.86 44.03,-44.19 18.38,-10.39 39.45,-15.59 63.13,-15.59 14.69,0 27.77,1.96 39.16,5.75 11.39,3.8 21.12,8.6 29.05,14.42 5.03,3.46 10.28,8.44 15.76,14.86zm47.18 -30.28l157.27 0 0 38.32 -115.37 0 0 58.94 107.66 0 0 38.1 -107.66 0 0 64.48 121.29 0 0 38.32 -163.19 0 0 -238.17zm215.79 0l76.93 0c19.61,0 34.58,1.67 44.81,4.92 13.58,4.36 24.53,12.07 33.02,23.02 8.44,10.95 12.68,24.86 12.68,41.62 0,15.2 -3.8,28.44 -11.4,39.73 -7.6,11.28 -17.93,19.33 -31,24.14 -10.06,3.69 -26.09,5.59 -48.1,5.59l-34.25 0 0 99.17 -42.68 0 0 -238.17zm42.68 102.3l29.67 0c7.6,0 12.85,-0.17 15.7,-0.45 5.98,-0.56 11.12,-1.56 15.37,-3.07 4.24,-1.45 7.93,-3.63 11.06,-6.43 3.13,-2.85 5.47,-6.26 7.09,-10.17 1.67,-3.91 2.46,-8.16 2.46,-12.63 0,-7.48 -2.01,-13.96 -6.15,-19.38 -4.08,-5.36 -10.22,-9.22 -18.38,-11.51 -5.7,-1.67 -15.25,-2.46 -28.66,-2.46l-28.16 0 0 66.09zm336.3 -102.3l0 38.32 -72.18 0 0 199.84 -42.74 0 0 -199.84 -71.34 0 0 -38.32 186.27 0z"/>
  <path class="fil2" d="M848.27 674.88l-8.98 0 39.28 -93.87 9.73 0 38.86 93.87 -9.09 0 -11.53 -27.46 -47.31 0 -10.96 27.46zm13.2 -33.53l42.87 0 -15.84 -41.77 -5.11 -14.26 -4.95 14.26 -16.97 41.77zm152.56 33.53l-8.45 0 0 -93.87 52.68 0 0 7.39 -44.23 0 0 34.86 41.9 0 0 7.39 -41.9 0 0 44.23zm186.89 0l-9.81 -26.8c-1.14,-3.14 -2.31,-5.74 -3.48,-7.83 -1.17,-2.09 -2.53,-3.74 -4.14,-5 -1.58,-1.23 -3.48,-2.11 -5.68,-2.64 -2.18,-0.51 -4.91,-0.77 -8.12,-0.77l-19.23 0 0 43.04 -8.32 0 0 -93.87 22.02 0c2.53,0 5.28,0.04 8.27,0.13 2.97,0.09 5.96,0.35 8.98,0.84 2.99,0.46 5.9,1.19 8.69,2.16 2.8,0.97 5.26,2.36 7.44,4.14 2.15,1.78 3.89,4.03 5.21,6.75 1.3,2.73 1.96,6.07 1.96,10.03 0,3.13 -0.53,6.01 -1.59,8.61 -1.05,2.59 -2.57,4.89 -4.53,6.84 -1.98,1.94 -4.36,3.59 -7.11,4.89 -2.75,1.32 -5.79,2.24 -9.15,2.81 -0.09,0.25 -0.13,0.42 -0.13,0.51 0,0.04 0.02,0.09 0.04,0.11 0.02,0.02 0.02,0.04 0.02,0.09 3.1,0.59 5.61,1.65 7.53,3.13 1.92,1.47 3.61,3.52 5.13,6.09 1.5,2.57 2.97,5.79 4.4,9.59 1.45,3.83 3.23,8.39 5.39,13.69l5.15 13.47 -8.96 0zm-50.19 -50.44l18.91 0c3.14,0 6.27,-0.27 9.37,-0.82 3.13,-0.53 5.94,-1.47 8.43,-2.86 2.49,-1.39 4.53,-3.23 6.1,-5.59 1.56,-2.33 2.35,-5.3 2.35,-8.91 0,-3.61 -0.64,-6.58 -1.94,-8.87 -1.3,-2.31 -3.08,-4.11 -5.39,-5.46 -2.29,-1.32 -5.02,-2.24 -8.16,-2.77 -3.12,-0.51 -6.56,-0.77 -10.25,-0.77l-19.41 0 0 36.04zm152.16 50.44l-8.71 0 0 -93.87 8.71 0 0 93.87zm154.5 -81.62c-5.68,-4.38 -13.31,-6.58 -22.95,-6.58 -6.4,0 -11.95,1.21 -16.64,3.63 -4.69,2.44 -8.56,5.63 -11.66,9.61 -3.1,3.96 -5.39,8.47 -6.89,13.56 -1.52,5.06 -2.27,10.23 -2.27,15.52 0,5.33 0.7,10.38 2.09,15.2 1.41,4.8 3.57,9.04 6.51,12.72 2.95,3.67 6.69,6.6 11.22,8.76 4.53,2.18 9.95,3.25 16.22,3.25 5.7,0 10.89,-0.66 15.56,-1.96 4.66,-1.3 8.52,-3.3 11.57,-5.99l2.71 6.25c-3.7,2.97 -8.23,5.22 -13.6,6.78 -5.37,1.54 -11.49,2.31 -18.31,2.31 -6.96,0 -13.12,-1.23 -18.46,-3.7 -5.37,-2.49 -9.84,-5.85 -13.45,-10.12 -3.63,-4.27 -6.36,-9.26 -8.23,-14.99 -1.87,-5.72 -2.81,-11.84 -2.81,-18.37 0,-6.69 1.03,-13.05 3.1,-19.06 2.07,-6.03 5.06,-11.31 8.98,-15.89 3.9,-4.58 8.67,-8.21 14.28,-10.89 5.59,-2.68 11.95,-4.03 19.04,-4.03 5.68,0 10.67,0.72 14.99,2.16 4.34,1.43 8.36,3.76 12.1,6.98l-3.1 4.84zm86.79 81.62l-8.98 0 39.28 -93.87 9.73 0 38.86 93.87 -9.09 0 -11.53 -27.46 -47.31 0 -10.96 27.46zm13.2 -33.53l42.87 0 -15.84 -41.77 -5.11 -14.26 -4.95 14.26 -16.97 41.77z"/>
 </g>
</svg>
