<?xml version="1.0" encoding="UTF-8"?>
<!DOCTYPE svg PUBLIC "-//W3C//DTD SVG 1.1//EN" "http://www.w3.org/Graphics/SVG/1.1/DTD/svg11.dtd">
<!-- Creator: CorelDRAW 2019 (64-Bit Evaluation Version) -->
<svg xmlns="http://www.w3.org/2000/svg" xml:space="preserve" width="3.87162in" height="1.20817in" version="1.1" style="shape-rendering:geometricPrecision; text-rendering:geometricPrecision; image-rendering:optimizeQuality; fill-rule:evenodd; clip-rule:evenodd"
viewBox="0 0 454.91 141.96"
 xmlns:xlink="http://www.w3.org/1999/xlink">
 <defs>
  <style type="text/css">
   <![CDATA[
    .str0 {stroke:white;stroke-width:0.82;stroke-miterlimit:2.61313}
    .str1 {stroke:white;stroke-width:0.35;stroke-miterlimit:2.61313}
    .fil0 {fill:#044070}
    .fil4 {fill:#5D4C30}
    .fil5 {fill:#706756}
    .fil6 {fill:#776B58}
    .fil3 {fill:#9D917D}
    .fil2 {fill:#333333;fill-rule:nonzero}
    .fil1 {fill:white;fill-rule:nonzero}
   ]]>
  </style>
 </defs>
 <g id="Layer_x0020_1">
  <metadata id="CorelCorpID_0Corel-Layer"/>
  <rect class="fil0" x="0.12" y="32.33" width="142.68" height="86.92"/>
  <path class="fil1" d="M14.27 101.61l0 -57.82 21.83 0c3.84,0 6.77,0.19 8.8,0.55 2.84,0.47 5.22,1.37 7.15,2.69 1.92,1.33 3.47,3.19 4.64,5.57 1.17,2.38 1.75,5.01 1.75,7.87 0,4.9 -1.56,9.06 -4.7,12.45 -3.12,3.4 -8.79,5.1 -16.97,5.1l-14.83 0 0 23.58 -7.67 0zm7.67 -30.36l14.94 0c4.95,0 8.45,-0.92 10.54,-2.76 2.07,-1.84 3.11,-4.43 3.11,-7.78 0,-2.41 -0.61,-4.48 -1.83,-6.2 -1.22,-1.72 -2.84,-2.87 -4.83,-3.42 -1.29,-0.34 -3.67,-0.51 -7.13,-0.51l-14.79 0 0 20.67zm45.22 30.36l0 -41.91 6.38 0 0 6.42c1.63,-2.97 3.14,-4.94 4.52,-5.88 1.39,-0.96 2.91,-1.43 4.56,-1.43 2.4,0 4.83,0.75 7.31,2.25l-2.53 6.55c-1.72,-0.97 -3.45,-1.45 -5.17,-1.45 -1.55,0 -2.93,0.47 -4.16,1.4 -1.22,0.93 -2.1,2.22 -2.62,3.88 -0.79,2.52 -1.18,5.28 -1.18,8.28l0 21.9 -7.11 0zm24.3 -20.95c0,-7.74 2.15,-13.47 6.47,-17.2 3.59,-3.1 7.99,-4.64 13.18,-4.64 5.75,0 10.46,1.88 14.12,5.65 3.65,3.75 5.48,8.96 5.48,15.6 0,5.38 -0.81,9.61 -2.42,12.69 -1.61,3.08 -3.97,5.48 -7.07,7.19 -3.08,1.71 -6.46,2.56 -10.11,2.56 -5.87,0 -10.61,-1.87 -14.23,-5.63 -3.62,-3.75 -5.42,-9.16 -5.42,-16.22zm7.27 0.01c0,5.36 1.17,9.37 3.51,12.02 2.36,2.66 5.3,4 8.87,4 3.53,0 6.46,-1.33 8.81,-4.01 2.34,-2.68 3.51,-6.76 3.51,-12.23 0,-5.17 -1.18,-9.08 -3.54,-11.74 -2.36,-2.67 -5.29,-4 -8.79,-4 -3.57,0 -6.51,1.32 -8.87,3.97 -2.34,2.65 -3.51,6.65 -3.51,11.99z"/>
  <path class="fil1 str0" d="M185.78 85.22l15.26 1.7c-0.85,3.19 -2.22,5.95 -4.15,8.29 -1.91,2.33 -4.37,4.15 -7.36,5.44 -2.97,1.29 -6.77,1.94 -11.37,1.94 -4.45,0 -8.16,-0.42 -11.12,-1.24 -2.95,-0.83 -5.49,-2.18 -7.63,-4.04 -2.13,-1.84 -3.8,-4.02 -5.01,-6.53 -1.21,-2.5 -1.82,-5.81 -1.82,-9.95 0,-4.31 0.74,-7.9 2.21,-10.77 1.08,-2.11 2.56,-4 4.43,-5.67 1.87,-1.67 3.78,-2.92 5.76,-3.73 3.14,-1.29 7.15,-1.94 12.03,-1.94 6.85,0 12.06,1.22 15.65,3.66 3.59,2.45 6.11,6.02 7.56,10.71l-15.1 2.02c-0.47,-1.79 -1.33,-3.14 -2.58,-4.05 -1.25,-0.9 -2.93,-1.36 -5.05,-1.36 -2.65,0 -4.8,0.96 -6.46,2.85 -1.64,1.91 -2.46,4.79 -2.46,8.67 0,3.45 0.82,6.06 2.45,7.85 1.63,1.79 3.7,2.68 6.23,2.68 2.1,0 3.88,-0.54 5.3,-1.6 1.44,-1.08 2.5,-2.72 3.22,-4.94zm69.12 -0.57l-32.22 0c0.3,2.57 0.98,4.5 2.1,5.76 1.55,1.82 3.58,2.72 6.08,2.72 1.59,0 3.1,-0.39 4.51,-1.17 0.87,-0.5 1.82,-1.37 2.81,-2.62l15.83 1.45c-2.42,4.2 -5.34,7.23 -8.76,9.04 -3.42,1.83 -8.33,2.75 -14.72,2.75 -5.56,0 -9.92,-0.78 -13.11,-2.36 -3.18,-1.56 -5.81,-4.05 -7.91,-7.46 -2.09,-3.42 -3.14,-7.43 -3.14,-12.03 0,-6.55 2.1,-11.87 6.3,-15.92 4.19,-4.05 9.99,-6.08 17.37,-6.08 6,0 10.73,0.92 14.2,2.73 3.47,1.82 6.12,4.44 7.94,7.9 1.82,3.45 2.72,7.94 2.72,13.47l0 1.82zm-16.31 -7.67c-0.31,-3.12 -1.16,-5.36 -2.52,-6.7 -1.36,-1.35 -3.14,-2.02 -5.36,-2.02 -2.56,0 -4.6,1.02 -6.14,3.05 -0.97,1.26 -1.59,3.15 -1.86,5.67l15.87 0zm23.74 40.54l0 -57.82 15.05 0 0 6.18c2.07,-2.61 3.98,-4.37 5.72,-5.29 2.33,-1.24 4.93,-1.86 7.77,-1.86 5.6,0 9.92,2.14 12.99,6.43 3.05,4.29 4.59,9.61 4.59,15.92 0,6.98 -1.67,12.31 -5.01,15.99 -3.34,3.67 -7.55,5.5 -12.65,5.5 -2.48,0 -4.72,-0.42 -6.76,-1.25 -2.05,-0.85 -3.86,-2.09 -5.46,-3.74l0 19.93 -16.23 0zm16.11 -36.73c0,3.34 0.7,5.8 2.09,7.42 1.39,1.61 3.15,2.42 5.28,2.42 1.86,0 3.42,-0.77 4.68,-2.31 1.25,-1.55 1.88,-4.17 1.88,-7.87 0,-3.42 -0.66,-5.92 -1.96,-7.52 -1.32,-1.6 -2.91,-2.4 -4.8,-2.4 -2.05,0 -3.74,0.81 -5.11,2.42 -1.36,1.61 -2.05,4.23 -2.05,7.85zm57.05 -37l0 15.91 8.8 0 0 11.79 -8.8 0 0 14.83c0,1.78 0.17,2.96 0.51,3.54 0.53,0.89 1.45,1.33 2.77,1.33 1.18,0 2.84,-0.34 4.98,-1.02l1.18 11.1c-3.97,0.87 -7.67,1.31 -11.12,1.31 -4,0 -6.94,-0.51 -8.84,-1.53 -1.88,-1.02 -3.28,-2.58 -4.2,-4.67 -0.9,-2.09 -1.36,-5.48 -1.36,-10.15l0 -14.74 -5.89 0 0 -11.79 5.89 0 0 -7.68 16.07 -8.22z"/>
  <path class="fil1 str1" d="M198.24 141.51l-1.7 0 7.44 -17.77 1.84 0 7.36 17.77 -1.72 0 -2.18 -5.2 -8.96 0 -2.07 5.2zm2.5 -6.35l8.12 0 -3 -7.91 -0.97 -2.7 -0.94 2.7 -3.21 7.91zm28.88 6.35l-1.6 0 0 -17.77 9.97 0 0 1.4 -8.37 0 0 6.6 7.93 0 0 1.4 -7.93 0 0 8.37zm35.38 0l-1.86 -5.07c-0.22,-0.6 -0.44,-1.09 -0.66,-1.48 -0.22,-0.4 -0.48,-0.71 -0.78,-0.95 -0.3,-0.23 -0.66,-0.4 -1.08,-0.5 -0.41,-0.1 -0.93,-0.15 -1.54,-0.15l-3.64 0 0 8.15 -1.57 0 0 -17.77 4.17 0c0.48,0 1,0.01 1.57,0.02 0.56,0.02 1.13,0.07 1.7,0.16 0.57,0.09 1.12,0.22 1.65,0.41 0.53,0.18 1,0.45 1.41,0.78 0.41,0.34 0.74,0.76 0.99,1.28 0.25,0.52 0.37,1.15 0.37,1.9 0,0.59 -0.1,1.14 -0.3,1.63 -0.2,0.49 -0.49,0.92 -0.86,1.3 -0.38,0.37 -0.82,0.68 -1.35,0.92 -0.52,0.25 -1.1,0.43 -1.73,0.53 -0.02,0.05 -0.02,0.08 -0.02,0.1 0,0.01 0,0.02 0.01,0.02 0,0 0,0.01 0,0.02 0.59,0.11 1.06,0.31 1.42,0.59 0.36,0.28 0.68,0.67 0.97,1.15 0.28,0.49 0.56,1.1 0.83,1.82 0.28,0.72 0.61,1.59 1.02,2.59l0.97 2.55 -1.7 0zm-9.5 -9.55l3.58 0c0.6,0 1.19,-0.05 1.77,-0.15 0.59,-0.1 1.13,-0.28 1.6,-0.54 0.47,-0.26 0.86,-0.61 1.15,-1.06 0.3,-0.44 0.45,-1 0.45,-1.69 0,-0.68 -0.12,-1.25 -0.37,-1.68 -0.25,-0.44 -0.58,-0.78 -1.02,-1.03 -0.43,-0.25 -0.95,-0.43 -1.55,-0.53 -0.59,-0.1 -1.24,-0.15 -1.94,-0.15l-3.67 0 0 6.82zm28.81 9.55l-1.65 0 0 -17.77 1.65 0 0 17.77zm29.25 -15.45c-1.08,-0.83 -2.52,-1.25 -4.35,-1.25 -1.21,0 -2.26,0.23 -3.15,0.69 -0.89,0.46 -1.62,1.07 -2.21,1.82 -0.59,0.75 -1.02,1.6 -1.3,2.57 -0.29,0.96 -0.43,1.94 -0.43,2.94 0,1.01 0.13,1.97 0.4,2.88 0.27,0.91 0.67,1.71 1.23,2.41 0.56,0.7 1.27,1.25 2.12,1.66 0.86,0.41 1.88,0.62 3.07,0.62 1.08,0 2.06,-0.12 2.95,-0.37 0.88,-0.25 1.61,-0.62 2.19,-1.13l0.51 1.18c-0.7,0.56 -1.56,0.99 -2.57,1.28 -1.02,0.29 -2.17,0.44 -3.47,0.44 -1.32,0 -2.48,-0.23 -3.5,-0.7 -1.02,-0.47 -1.86,-1.11 -2.55,-1.92 -0.69,-0.81 -1.2,-1.75 -1.56,-2.84 -0.35,-1.08 -0.53,-2.24 -0.53,-3.48 0,-1.27 0.2,-2.47 0.59,-3.61 0.39,-1.14 0.96,-2.14 1.7,-3.01 0.74,-0.87 1.64,-1.55 2.7,-2.06 1.06,-0.51 2.26,-0.76 3.6,-0.76 1.08,0 2.02,0.14 2.84,0.41 0.82,0.27 1.58,0.71 2.29,1.32l-0.59 0.92zm16.43 15.45l-1.7 0 7.44 -17.77 1.84 0 7.36 17.77 -1.72 0 -2.18 -5.2 -8.96 0 -2.07 5.2zm2.5 -6.35l8.12 0 -3 -7.91 -0.97 -2.7 -0.94 2.7 -3.21 7.91z"/>
  <path class="fil2" d="M-0 19.67l0 -19.67 6.37 0c2.41,0 3.98,0.1 4.72,0.29 1.13,0.3 2.07,0.94 2.83,1.93 0.76,0.99 1.14,2.27 1.14,3.83 0,1.21 -0.22,2.22 -0.65,3.05 -0.44,0.82 -0.99,1.47 -1.67,1.94 -0.67,0.47 -1.36,0.78 -2.06,0.93 -0.95,0.19 -2.32,0.28 -4.11,0.28l-2.58 0 0 7.42 -3.98 0zm3.98 -16.35l0 5.61 2.17 0c1.56,0 2.6,-0.11 3.13,-0.31 0.53,-0.21 0.94,-0.53 1.24,-0.97 0.3,-0.44 0.45,-0.95 0.45,-1.53 0,-0.72 -0.21,-1.31 -0.63,-1.78 -0.42,-0.47 -0.95,-0.76 -1.59,-0.88 -0.47,-0.09 -1.42,-0.13 -2.85,-0.13l-1.91 0zm17.92 16.35l-3.76 0 0 -14.26 3.49 0 0 2.02c0.6,-0.96 1.14,-1.58 1.62,-1.88 0.48,-0.3 1.03,-0.44 1.63,-0.44 0.86,0 1.69,0.24 2.49,0.71l-1.17 3.29c-0.64,-0.41 -1.23,-0.62 -1.77,-0.62 -0.53,0 -0.98,0.15 -1.35,0.44 -0.37,0.29 -0.65,0.82 -0.87,1.58 -0.21,0.76 -0.32,2.35 -0.32,4.78l0 4.4zm15.34 -4.51l3.76 0.63c-0.48,1.38 -1.25,2.43 -2.29,3.15 -1.04,0.72 -2.35,1.08 -3.91,1.08 -2.48,0 -4.31,-0.81 -5.5,-2.43 -0.94,-1.3 -1.41,-2.94 -1.41,-4.92 0,-2.36 0.62,-4.22 1.85,-5.56 1.23,-1.34 2.79,-2.01 4.68,-2.01 2.12,0 3.79,0.7 5.02,2.1 1.22,1.4 1.81,3.55 1.75,6.44l-9.42 0c0.03,1.12 0.33,1.99 0.91,2.61 0.58,0.62 1.3,0.93 2.16,0.93 0.59,0 1.09,-0.16 1.48,-0.48 0.4,-0.32 0.7,-0.84 0.91,-1.55zm0.22 -3.82c-0.03,-1.09 -0.31,-1.93 -0.84,-2.5 -0.54,-0.57 -1.19,-0.86 -1.96,-0.86 -0.82,0 -1.5,0.3 -2.03,0.9 -0.54,0.6 -0.8,1.42 -0.79,2.45l5.62 0zm19.24 -1.7l-3.71 0.66c-0.12,-0.74 -0.41,-1.29 -0.85,-1.67 -0.44,-0.37 -1.02,-0.56 -1.72,-0.56 -0.94,0 -1.69,0.33 -2.25,0.98 -0.56,0.65 -0.84,1.74 -0.84,3.26 0,1.69 0.28,2.89 0.85,3.59 0.57,0.7 1.33,1.05 2.28,1.05 0.71,0 1.3,-0.21 1.75,-0.61 0.46,-0.41 0.78,-1.11 0.97,-2.11l3.71 0.63c-0.38,1.7 -1.12,2.99 -2.21,3.86 -1.09,0.87 -2.55,1.3 -4.39,1.3 -2.08,0 -3.74,-0.66 -4.98,-1.97 -1.24,-1.32 -1.86,-3.14 -1.86,-5.47 0,-2.36 0.62,-4.19 1.86,-5.5 1.24,-1.31 2.92,-1.97 5.04,-1.97 1.73,0 3.11,0.38 4.14,1.12 1.02,0.75 1.75,1.88 2.2,3.41zm2.86 -6.16l0 -3.49 3.76 0 0 3.49 -3.76 0zm0 16.18l0 -14.26 3.76 0 0 14.26 -3.76 0zm6.29 -4.01l3.79 -0.58c0.16,0.73 0.49,1.28 0.98,1.66 0.49,0.38 1.18,0.57 2.07,0.57 0.98,0 1.71,-0.18 2.2,-0.54 0.33,-0.25 0.49,-0.59 0.49,-1.01 0,-0.28 -0.09,-0.52 -0.27,-0.71 -0.19,-0.18 -0.61,-0.35 -1.26,-0.5 -3.05,-0.67 -4.97,-1.29 -5.79,-1.84 -1.13,-0.77 -1.69,-1.85 -1.69,-3.22 0,-1.24 0.49,-2.28 1.47,-3.12 0.98,-0.84 2.49,-1.26 4.53,-1.26 1.95,0 3.4,0.32 4.35,0.96 0.95,0.64 1.6,1.58 1.96,2.83l-3.54 0.66c-0.15,-0.56 -0.44,-0.99 -0.87,-1.29 -0.43,-0.3 -1.03,-0.44 -1.83,-0.44 -1,0 -1.71,0.14 -2.15,0.42 -0.29,0.2 -0.43,0.45 -0.43,0.77 0,0.27 0.12,0.5 0.38,0.69 0.34,0.25 1.52,0.6 3.54,1.06 2.02,0.46 3.42,1.02 4.22,1.68 0.79,0.67 1.19,1.61 1.19,2.81 0,1.3 -0.54,2.43 -1.64,3.37 -1.09,0.94 -2.71,1.41 -4.85,1.41 -1.94,0 -3.48,-0.39 -4.62,-1.18 -1.13,-0.78 -1.87,-1.85 -2.22,-3.19zm16.63 -12.17l0 -3.49 3.76 0 0 3.49 -3.76 0zm0 16.18l0 -14.26 3.76 0 0 14.26 -3.76 0zm6.75 -7.3c0,-1.25 0.31,-2.47 0.93,-3.64 0.62,-1.18 1.49,-2.07 2.62,-2.69 1.13,-0.62 2.39,-0.93 3.79,-0.93 2.16,0 3.92,0.7 5.3,2.1 1.38,1.41 2.07,3.17 2.07,5.32 0,2.16 -0.7,3.95 -2.08,5.37 -1.39,1.42 -3.14,2.13 -5.25,2.13 -1.3,0 -2.55,-0.3 -3.74,-0.89 -1.18,-0.59 -2.08,-1.46 -2.7,-2.6 -0.62,-1.14 -0.93,-2.53 -0.93,-4.17zm3.87 0.2c0,1.42 0.33,2.5 1,3.25 0.67,0.76 1.5,1.13 2.48,1.13 0.98,0 1.8,-0.38 2.47,-1.13 0.66,-0.75 1,-1.85 1,-3.28 0,-1.4 -0.33,-2.47 -1,-3.22 -0.66,-0.76 -1.49,-1.13 -2.47,-1.13 -0.98,0 -1.81,0.38 -2.48,1.13 -0.67,0.75 -1,1.84 -1,3.25zm26.76 7.1l-3.76 0 0 -7.27c0,-1.54 -0.08,-2.53 -0.24,-2.98 -0.16,-0.45 -0.43,-0.8 -0.79,-1.05 -0.37,-0.25 -0.81,-0.38 -1.32,-0.38 -0.66,0 -1.25,0.18 -1.77,0.54 -0.53,0.36 -0.88,0.83 -1.08,1.42 -0.2,0.59 -0.29,1.68 -0.29,3.27l0 6.45 -3.76 0 0 -14.26 3.49 0 0 2.09c1.25,-1.6 2.82,-2.4 4.72,-2.4 0.83,0 1.6,0.15 2.29,0.45 0.7,0.3 1.22,0.68 1.57,1.14 0.36,0.47 0.6,0.99 0.74,1.58 0.14,0.59 0.21,1.43 0.21,2.53l0 8.85zm11.42 0l0 -19.67 5.97 0 3.53 13.42 3.49 -13.42 5.98 0 0 19.67 -3.68 0 -0.01 -15.49 -3.88 15.49 -3.83 0 -3.86 -15.49 -0.01 15.49 -3.68 0zm31.16 -4.51l3.76 0.63c-0.48,1.38 -1.25,2.43 -2.29,3.15 -1.04,0.72 -2.35,1.08 -3.91,1.08 -2.48,0 -4.31,-0.81 -5.5,-2.43 -0.94,-1.3 -1.41,-2.94 -1.41,-4.92 0,-2.36 0.62,-4.22 1.85,-5.56 1.23,-1.34 2.79,-2.01 4.68,-2.01 2.12,0 3.79,0.7 5.02,2.1 1.22,1.4 1.81,3.55 1.75,6.44l-9.42 0c0.03,1.12 0.33,1.99 0.91,2.61 0.58,0.62 1.3,0.93 2.16,0.93 0.59,0 1.09,-0.16 1.48,-0.48 0.4,-0.32 0.7,-0.84 0.91,-1.55zm0.22 -3.82c-0.03,-1.09 -0.31,-1.93 -0.84,-2.5 -0.54,-0.57 -1.19,-0.86 -1.96,-0.86 -0.82,0 -1.5,0.3 -2.03,0.9 -0.54,0.6 -0.8,1.42 -0.79,2.45l5.62 0zm15.06 3.82l3.76 0.63c-0.48,1.38 -1.25,2.43 -2.29,3.15 -1.04,0.72 -2.35,1.08 -3.91,1.08 -2.48,0 -4.31,-0.81 -5.5,-2.43 -0.94,-1.3 -1.41,-2.94 -1.41,-4.92 0,-2.36 0.62,-4.22 1.85,-5.56 1.23,-1.34 2.79,-2.01 4.68,-2.01 2.12,0 3.79,0.7 5.02,2.1 1.22,1.4 1.81,3.55 1.75,6.44l-9.42 0c0.03,1.12 0.33,1.99 0.91,2.61 0.58,0.62 1.3,0.93 2.16,0.93 0.59,0 1.09,-0.16 1.48,-0.48 0.4,-0.32 0.7,-0.84 0.91,-1.55zm0.22 -3.82c-0.03,-1.09 -0.31,-1.93 -0.84,-2.5 -0.54,-0.57 -1.19,-0.86 -1.96,-0.86 -0.82,0 -1.5,0.3 -2.03,0.9 -0.54,0.6 -0.8,1.42 -0.79,2.45l5.62 0zm13.33 -5.94l0 3 -2.58 0 0 5.78c0,1.17 0.02,1.85 0.07,2.05 0.05,0.19 0.16,0.35 0.34,0.48 0.17,0.12 0.38,0.19 0.64,0.19 0.35,0 0.86,-0.12 1.52,-0.36l0.32 2.93c-0.87,0.38 -1.86,0.56 -2.97,0.56 -0.68,0 -1.29,-0.11 -1.83,-0.34 -0.54,-0.23 -0.94,-0.53 -1.2,-0.89 -0.26,-0.37 -0.43,-0.86 -0.53,-1.48 -0.08,-0.44 -0.12,-1.33 -0.12,-2.67l0 -6.24 -1.73 0 0 -3 1.73 0 0 -2.83 3.76 -2.23 0 5.06 2.58 0zm1.29 10.25l3.79 -0.58c0.16,0.73 0.49,1.28 0.98,1.66 0.49,0.38 1.18,0.57 2.07,0.57 0.98,0 1.71,-0.18 2.2,-0.54 0.33,-0.25 0.49,-0.59 0.49,-1.01 0,-0.28 -0.09,-0.52 -0.27,-0.71 -0.19,-0.18 -0.61,-0.35 -1.26,-0.5 -3.05,-0.67 -4.97,-1.29 -5.79,-1.84 -1.13,-0.77 -1.69,-1.85 -1.69,-3.22 0,-1.24 0.49,-2.28 1.47,-3.12 0.98,-0.84 2.49,-1.26 4.53,-1.26 1.95,0 3.4,0.32 4.35,0.96 0.95,0.64 1.6,1.58 1.96,2.83l-3.54 0.66c-0.15,-0.56 -0.44,-0.99 -0.87,-1.29 -0.43,-0.3 -1.03,-0.44 -1.83,-0.44 -1,0 -1.71,0.14 -2.15,0.42 -0.29,0.2 -0.43,0.45 -0.43,0.77 0,0.27 0.12,0.5 0.38,0.69 0.34,0.25 1.52,0.6 3.54,1.06 2.02,0.46 3.42,1.02 4.22,1.68 0.79,0.67 1.19,1.61 1.19,2.81 0,1.3 -0.54,2.43 -1.64,3.37 -1.09,0.94 -2.71,1.41 -4.85,1.41 -1.94,0 -3.48,-0.39 -4.62,-1.18 -1.13,-0.78 -1.87,-1.85 -2.22,-3.19zm24.29 4.01l0 -19.67 14.56 0 0 3.32 -10.58 0 0 4.37 9.84 0 0 3.32 -9.84 0 0 5.33 10.96 0 0 3.32 -14.95 0zm16.47 0l5.14 -7.35 -4.92 -6.92 4.6 0 2.52 3.92 2.67 -3.92 4.42 0 -4.83 6.76 5.27 7.51 -4.59 0 -2.94 -4.42 -2.92 4.42 -4.41 0zm17 -14.26l3.52 0 0 2.09c0.46,-0.71 1.07,-1.29 1.85,-1.74 0.78,-0.44 1.64,-0.66 2.59,-0.66 1.65,0 3.06,0.65 4.21,1.95 1.15,1.3 1.73,3.11 1.73,5.43 0,2.39 -0.58,4.24 -1.74,5.56 -1.16,1.32 -2.57,1.98 -4.23,1.98 -0.79,0 -1.5,-0.16 -2.14,-0.47 -0.64,-0.31 -1.31,-0.85 -2.02,-1.61l0 7.14 -3.76 0 0 -19.67zm3.71 6.91c0,1.61 0.32,2.79 0.95,3.56 0.63,0.76 1.41,1.15 2.31,1.15 0.87,0 1.6,-0.35 2.18,-1.06 0.58,-0.71 0.87,-1.86 0.87,-3.47 0,-1.5 -0.3,-2.62 -0.9,-3.34 -0.6,-0.73 -1.34,-1.09 -2.22,-1.09 -0.92,0 -1.69,0.36 -2.29,1.07 -0.61,0.71 -0.91,1.77 -0.91,3.17zm21.43 2.84l3.76 0.63c-0.48,1.38 -1.25,2.43 -2.29,3.15 -1.04,0.72 -2.35,1.08 -3.91,1.08 -2.48,0 -4.31,-0.81 -5.5,-2.43 -0.94,-1.3 -1.41,-2.94 -1.41,-4.92 0,-2.36 0.62,-4.22 1.85,-5.56 1.23,-1.34 2.79,-2.01 4.68,-2.01 2.12,0 3.79,0.7 5.02,2.1 1.22,1.4 1.81,3.55 1.75,6.44l-9.42 0c0.03,1.12 0.33,1.99 0.91,2.61 0.58,0.62 1.3,0.93 2.16,0.93 0.59,0 1.09,-0.16 1.48,-0.48 0.4,-0.32 0.7,-0.84 0.91,-1.55zm0.22 -3.82c-0.03,-1.09 -0.31,-1.93 -0.84,-2.5 -0.54,-0.57 -1.19,-0.86 -1.96,-0.86 -0.82,0 -1.5,0.3 -2.03,0.9 -0.54,0.6 -0.8,1.42 -0.79,2.45l5.62 0zm10.42 8.33l-3.76 0 0 -14.26 3.49 0 0 2.02c0.6,-0.96 1.14,-1.58 1.62,-1.88 0.48,-0.3 1.03,-0.44 1.63,-0.44 0.86,0 1.69,0.24 2.49,0.71l-1.17 3.29c-0.64,-0.41 -1.23,-0.62 -1.77,-0.62 -0.53,0 -0.98,0.15 -1.35,0.44 -0.37,0.29 -0.65,0.82 -0.87,1.58 -0.21,0.76 -0.32,2.35 -0.32,4.78l0 4.4zm13.61 -14.26l0 3 -2.58 0 0 5.78c0,1.17 0.02,1.85 0.07,2.05 0.05,0.19 0.16,0.35 0.34,0.48 0.17,0.12 0.38,0.19 0.64,0.19 0.35,0 0.86,-0.12 1.52,-0.36l0.32 2.93c-0.87,0.38 -1.86,0.56 -2.97,0.56 -0.68,0 -1.29,-0.11 -1.83,-0.34 -0.54,-0.23 -0.94,-0.53 -1.2,-0.89 -0.26,-0.37 -0.43,-0.86 -0.53,-1.48 -0.08,-0.44 -0.12,-1.33 -0.12,-2.67l0 -6.24 -1.73 0 0 -3 1.73 0 0 -2.83 3.76 -2.23 0 5.06 2.58 0zm2.64 -1.92l0 -3.49 3.76 0 0 3.49 -3.76 0zm0 16.18l0 -14.26 3.76 0 0 14.26 -3.76 0zm6.29 -4.01l3.79 -0.58c0.16,0.73 0.49,1.28 0.98,1.66 0.49,0.38 1.18,0.57 2.07,0.57 0.98,0 1.71,-0.18 2.2,-0.54 0.33,-0.25 0.49,-0.59 0.49,-1.01 0,-0.28 -0.09,-0.52 -0.27,-0.71 -0.19,-0.18 -0.61,-0.35 -1.26,-0.5 -3.05,-0.67 -4.97,-1.29 -5.79,-1.84 -1.13,-0.77 -1.69,-1.85 -1.69,-3.22 0,-1.24 0.49,-2.28 1.47,-3.12 0.98,-0.84 2.49,-1.26 4.53,-1.26 1.95,0 3.4,0.32 4.35,0.96 0.95,0.64 1.6,1.58 1.96,2.83l-3.54 0.66c-0.15,-0.56 -0.44,-0.99 -0.87,-1.29 -0.43,-0.3 -1.03,-0.44 -1.83,-0.44 -1,0 -1.71,0.14 -2.15,0.42 -0.29,0.2 -0.43,0.45 -0.43,0.77 0,0.27 0.12,0.5 0.38,0.69 0.34,0.25 1.52,0.6 3.54,1.06 2.02,0.46 3.42,1.02 4.22,1.68 0.79,0.67 1.19,1.61 1.19,2.81 0,1.3 -0.54,2.43 -1.64,3.37 -1.09,0.94 -2.71,1.41 -4.85,1.41 -1.94,0 -3.48,-0.39 -4.62,-1.18 -1.13,-0.78 -1.87,-1.85 -2.22,-3.19zm24.87 -0.49l3.76 0.63c-0.48,1.38 -1.25,2.43 -2.29,3.15 -1.04,0.72 -2.35,1.08 -3.91,1.08 -2.48,0 -4.31,-0.81 -5.5,-2.43 -0.94,-1.3 -1.41,-2.94 -1.41,-4.92 0,-2.36 0.62,-4.22 1.85,-5.56 1.23,-1.34 2.79,-2.01 4.68,-2.01 2.12,0 3.79,0.7 5.02,2.1 1.22,1.4 1.81,3.55 1.75,6.44l-9.42 0c0.03,1.12 0.33,1.99 0.91,2.61 0.58,0.62 1.3,0.93 2.16,0.93 0.59,0 1.09,-0.16 1.48,-0.48 0.4,-0.32 0.7,-0.84 0.91,-1.55zm0.22 -3.82c-0.03,-1.09 -0.31,-1.93 -0.84,-2.5 -0.54,-0.57 -1.19,-0.86 -1.96,-0.86 -0.82,0 -1.5,0.3 -2.03,0.9 -0.54,0.6 -0.8,1.42 -0.79,2.45l5.62 0z"/>
  <circle class="fil3" transform="matrix(0.946084 -0.323921 0.253389 0.740082 418.835 37.4731)" r="20.28"/>
  <path class="fil4" d="M374.81 58.38l51.65 -5.79c4.55,-0.51 5.37,-1.11 8.76,2.73 5.7,6.47 4.46,16.59 -5.87,19.26 -19.7,5.09 -31.46,4.44 -50.89,3.93 -4.42,-0.12 -8.69,0.61 -12.43,-1.68 -6.1,-3.75 -6.94,-8.3 -3.44,-13.52 3.62,-5.4 5.99,-4.25 12.21,-4.94z"/>
  <path class="fil5" d="M386.63 84.2c7.96,-5.41 16.19,-6.83 24.59,-5.9 7.07,0.79 17.73,1.9 19.09,10.19 1.37,8.39 -5.31,16.78 -14.4,17.72l-23.19 2.38c-12.74,-0.71 -15.86,-6.23 -12.65,-14.92 1.57,-4.25 2.84,-6.94 6.57,-9.47z"/>
  <path class="fil6" d="M380.95 111.73c21.37,-5.34 37.95,-7.7 49.51,-6.95 14.47,0.94 27.48,13.08 23.84,25.79 -2.29,7.99 -16.5,5.44 -24.52,5.56l-38.53 0.69c-25.09,-0.63 -28.37,-20.43 -10.3,-25.09z"/>
 </g>
</svg>
