<svg xmlns="http://www.w3.org/2000/svg" viewBox="0 0 602.58 154.65"><defs><style>.cls-1{fill:#87c31b;}.cls-2{fill:#29333f;}</style></defs><g id="Layer_2" data-name="Layer 2"><g id="Layer_1-2" data-name="Layer 1"><rect class="cls-1" x="400.46" y="21.55" width="10.91" height="10.91" rx="1.73"/><path class="cls-1" d="M376.21,86.32l12.61-16.54h-4.48A2.35,2.35,0,0,1,382,67.44V61.68a2.35,2.35,0,0,1,2.35-2.34h5.75a2.35,2.35,0,0,1,2.35,2.34v3.37l5.4-7.08h-2.31a3.93,3.93,0,0,1-3.92-3.92V51H378.07v7.32a3.1,3.1,0,0,1-3.1,3.1h-7.6a3,3,0,0,1-2.24-1l-4,5.22-27.1-35.22H302.93l42.81,55.67-51.37,68.1h30.31L361,106.91l35.91,47.31h30.57Zm-3.79-13.68a1.26,1.26,0,0,1-1.25,1.25H368.1a1.25,1.25,0,0,1-1.25-1.25V69.58a1.25,1.25,0,0,1,1.25-1.25h3.07a1.26,1.26,0,0,1,1.25,1.25Z"/><rect class="cls-1" x="400.15" y="10.23" width="8.46" height="8.46" rx="1.34"/><rect class="cls-1" x="367.89" y="50.96" width="6.56" height="6.56" rx="1.04"/><rect class="cls-1" x="395.72" y="46.69" width="7.26" height="7.26" rx="1.15"/><rect class="cls-1" x="380" y="27.01" width="17.46" height="17.46" rx="2.77"/><rect class="cls-1" x="411.57" width="7.26" height="7.26" rx="1.15"/><path class="cls-2" d="M26.91,131.31,2.87,107a.89.89,0,0,0-1.53.63v13.55a.91.91,0,0,0,.27.64L22.39,142H2.23a.89.89,0,0,0-.89.9v10.13a.89.89,0,0,0,.89.89H55.52a.89.89,0,0,0,.89-.89V142.93a.89.89,0,0,0-.89-.9H32c5.86-5.12,23.94-20.84,24.15-21a.89.89,0,0,0,.3-.67V106a.9.9,0,0,0-1.5-.66l-28,26"/><path class="cls-2" d="M45.69,66.92V87.77L33.44,74.94c-5.07-5.31-9.87-8.84-16.81-8.84C5.2,66.1,0,75.83,0,84.88c0,10.05,6.66,17.86,16.19,19l.36,0a.89.89,0,0,0,1-.75L19,93.73a.87.87,0,0,0-.17-.68.88.88,0,0,0-.61-.34l-.38,0C13,92,10,89.09,10,85c0-4.25,2.73-7.1,6.8-7.1,3.22,0,5.95,1.44,9.39,5l20,20.36a.91.91,0,0,0,.64.27h8.72a.89.89,0,0,0,.89-.9V66.92a.89.89,0,0,0-.89-.89H46.58a.89.89,0,0,0-.89.89"/><path class="cls-2" d="M5.91,59.07c0-.56-.15-1.21-.82-1.21s-.76.58-.76,1.1v.9H5.91ZM3.49,60.86V58.92c0-1,.43-2.06,1.62-2.06A1.48,1.48,0,0,1,6.6,58.14L9,56.65v1.21l-2.3,1.29v.71H9v1Zm6.92-1.92a4.14,4.14,0,1,0-4.14,4.14,4.15,4.15,0,0,0,4.14-4.14m-9,0a4.88,4.88,0,1,1,4.89,4.92,4.9,4.9,0,0,1-4.89-4.92"/><path class="cls-2" d="M177.63,154.22h-23.3V79a24.07,24.07,0,0,0-7.56-17.71,24.27,24.27,0,0,0-17.88-7.56,23.69,23.69,0,0,0-17.66,7.52A24.31,24.31,0,0,0,103.8,79v75.19H80.16V58.13A4.26,4.26,0,0,0,78.89,55a3.47,3.47,0,0,0-2.76-1.2H69.71V30.47h6.42a26.24,26.24,0,0,1,16.61,5.75,30.45,30.45,0,0,1,5.2,5.2c8.67-7.28,19.11-11,31.12-11,13.17,0,24.68,4.83,34.21,14.35h0c9.53,9.54,14.36,21,14.36,34.21Z"/><path class="cls-2" d="M308,97.33H209.3q3.24,18.11,14.66,26.45a41.28,41.28,0,0,0,24.88,8.34q20.75,0,34.77-17.54l17.8,13.69q-20,26.39-53.69,26.38-25.8,0-43.18-18T187.16,92.06q0-24.94,17.59-43.27t43-18.32q24.95,0,42.76,18.6T308,97.33ZM211.83,77.51h70.66q-11.78-24.23-34.77-24.23Q222.63,53.28,211.83,77.51Z"/><path class="cls-2" d="M429.27,30.69H439v68q0,31.44,27.17,31.43,12.06,0,19.11-8.41t7.05-23v-68h24.72v72.07q0,22.65-14.52,37.27t-37.08,14.62q-23,0-37.23-14.62T414,101.88V52.53Z"/><path class="cls-2" d="M601.32,47.72,585.05,62.26a86,86,0,0,0-10.93-6.92A24,24,0,0,0,563.18,53q-14.85,0-14.86,11.12,0,8,18.86,15.51t27.13,16.49a30.82,30.82,0,0,1,8.27,21.65q0,14.8-11.92,25.85a39.92,39.92,0,0,1-28,11q-24.52,0-40.23-23.1l19.2-9.41q10.1,10,21,10a21.68,21.68,0,0,0,13.25-4.2q5.68-4.22,5.68-9.77,0-9.84-19.91-17.7T534.1,84.54a27.75,27.75,0,0,1-7.65-19.88,31.48,31.48,0,0,1,10.87-24.43q10.86-9.76,27.27-9.76T601.32,47.72Z"/></g></g></svg>